PathFileType	4	(X/Y/Z)	Patient4_TMGait_0pt3_01_right_23.trc.trc
DataRate	CameraRate	NumFrames	NumMarkers	Units	OrigDataRate	OrigDataStartFrame	OrigNumFrames
55.118110236220	55.118110236220	4	33	mm	55.118110236220	106	       141
Frame#	Time	Sacral			L.Shoulder			Chest			R.Shoulder			Neck			R.ASIS			L.ASIS			R.Thigh.Superior			R.Thigh.Lateral			R.Thigh.Inferior			R.Patella			L.Thigh.Superior			L.Thigh.Lateral			L.Thigh.Inferior			L.Patella			L.Shank.Superior			L.Shank.Lateral			L.Shank.Inferior			R.Shank.Superior			R.Shank.Lateral			R.Shank.Inferior			R.Heel			R.Midfoot.Superior			R.Midfoot.Lateral			R.Toe			L.Heel			L.Midfoot.Lateral			L.Midfoot.Superior			L.Toe			L.Elbow			L.Wrist			R.Elbow			R.Wrist			
		X1	Y1	Z1	X2	Y2	Z2	X3	Y3	Z3	X4	Y4	Z4	X5	Y5	Z5	X6	Y6	Z6	X7	Y7	Z7	X8	Y8	Z8	X9	Y9	Z9	X10	Y10	Z10	X11	Y11	Z11	X12	Y12	Z12	X13	Y13	Z13	X14	Y14	Z14	X15	Y15	Z15	X16	Y16	Z16	X17	Y17	Z17	X18	Y18	Z18	X19	Y19	Z19	X20	Y20	Z20	X21	Y21	Z21	X22	Y22	Z22	X23	Y23	Z23	X24	Y24	Z24	X25	Y25	Z25	X26	Y26	Z26	X27	Y27	Z27	X28	Y28	Z28	X29	Y29	Z29	X30	Y30	Z30	X31	Y31	Z31	X32	Y32	Z32	X33	Y33	Z33	

106	44.145000000000	779.089864854828	994.420728935926	434.947800410682	991.907071352573	1425.027831390461	277.198230442558	1076.668038563373	1347.371088635654	443.850914994135	979.597584936356	1417.850219583827	612.360274384051	966.309882917754	1481.033355545775	437.105347711941	1001.594502994381	930.359861989492	566.258189506438	1005.375915648388	946.022612248057	292.950945824244	1063.683868878715	740.399460124102	547.264797221796	1000.806060472008	628.570036407338	619.170792124553	1086.936480624519	573.581263260505	545.448669219913	1085.795010308240	461.776090885372	574.090716834396	1060.546416628169	738.227537279840	340.777872910731	983.922213834985	611.393418618781	286.944173214642	1067.908564120899	542.560766544998	363.513155325203	1070.339157891503	466.792129244775	375.801871980619	1024.979468759631	394.869922156148	368.326574306350	916.568965296058	298.914140960539	317.054871822769	937.419370950166	182.857102130803	391.717995341191	1000.390136070142	398.149027543442	584.174167773561	871.771742368143	378.150155865911	640.963683310549	847.848138426493	266.412276348276	600.923325511046	641.884486472332	227.144227397330	565.539163351906	799.431993425701	151.031571074580	623.469087268771	687.716479751947	165.980158533011	647.197378309128	848.249106962144	34.739979190262	661.728329504558	781.593100463726	43.423897491461	431.249984800475	855.203686776459	38.736091524838	351.208068100484	941.216003408018	96.144812820466	378.302619933088	1066.654882031605	38.705495380027	346.017699254957	1047.002839132507	1098.285727654563	117.026420058568	1218.322908103597	900.378571600181	122.358035902928	913.216978638819	1066.544750384151	708.450267096277	962.517115995453	814.800028936932	745.060880479741	
107	44.163142857143	777.323482886786	994.853414911627	432.274996733915	994.139022745155	1425.389397947765	277.782276029012	1075.836332322644	1347.451946465601	445.778165642421	975.928278508130	1417.855892132855	612.769712060490	966.065326232776	1481.370409910747	437.382909764388	998.299204478302	930.994253964095	566.546290015719	1005.416763305118	946.284644782743	293.126430911812	1064.639980402325	744.346847160285	546.598869101680	1004.891599372013	630.986978620588	618.429425846782	1092.489074769462	578.059472552929	544.683601916143	1093.937016313607	465.999068981504	573.328785965775	1058.468367317197	737.371141832067	340.366340902845	980.856830299910	611.405943261200	286.229535981839	1063.754895055026	541.922302637662	363.208760598280	1065.560173331671	466.436534949991	375.655999879500	1020.089209769513	394.724622007104	367.939442648690	911.631213912751	298.910941063308	316.507605840690	932.152887251663	182.845626407298	391.374566681970	1009.423545132498	400.945340190011	582.931924776217	880.479586327849	378.896181122142	638.358285494009	858.923142334564	266.731211684605	598.317884722498	653.817099167159	222.309042693144	561.050358336075	812.993893160884	151.996904220434	621.042801343108	700.812298039690	163.683516677788	643.814561818371	864.640892752079	36.644249559639	661.017408739971	776.039131823887	43.582197211966	430.950480455870	849.742023208255	38.725808398460	350.965646338027	935.768686303293	96.133464850168	378.050516231143	1061.190865899773	38.659683232678	345.932569824864	1057.911614125473	1101.313659047726	116.436331978063	1239.733502885381	912.885259053251	123.924742686869	895.317606917520	1068.624633575136	704.474722062037	927.732451133264	813.243727064544	736.569264228111	
108	44.181285714286	775.616832660679	996.128091698992	429.831789057813	996.547398222014	1426.398843816822	278.645854122482	1075.053736124889	1348.214536300550	447.983419976866	972.330616417030	1418.751554249883	613.283320874010	965.900242183256	1482.405936525390	437.844801099344	994.866795113080	932.333667211985	567.195659051672	1005.471082558537	947.200976951999	293.714917486638	1064.775267836172	748.777243465307	546.394797160759	1007.732024659932	634.049292029583	618.061927569321	1096.574697712336	583.016247761085	544.366549116433	1100.627386685383	471.096825257826	572.992344454452	1055.843768480872	736.898742380286	340.320811886802	977.037271356494	612.024069498409	285.650217134619	1058.610693282934	541.687891068984	363.012974807360	1059.664511093765	466.581264386140	375.511364263859	1014.277334120504	395.143645582467	367.497587297289	905.995796908402	299.229395374346	315.934992487299	926.590836974944	183.170752858650	390.969325002772	1017.767171427133	404.199653101042	582.139587923697	889.113674915771	378.584815405970	636.392130720851	871.196895079934	265.962449416449	596.240523425063	667.801300306895	213.842788901063	557.364574043235	829.182215542166	151.612394410028	619.121522118326	716.717200388143	158.455786255496	641.087064226300	885.127990987868	38.628184619935	660.485565405986	770.481649947296	43.879203796424	430.638826880214	844.279837066903	38.790101487210	350.715498244760	930.343138501606	96.185917230401	377.736331740502	1055.720843299749	38.611537286425	345.841604796836	1068.373110675342	1105.037832741154	116.396868372154	1260.219728467950	926.763916627409	126.320622094892	878.205679722129	1072.278806143237	700.827914173792	895.093106913268	814.508330748123	728.368875127930	
109	44.199428571429	774.008306431880	998.191225991472	427.609923669140	999.118219944680	1428.019331982541	279.785173976127	1074.317800706874	1349.619706974898	450.449301144223	968.818676839553	1420.483422277398	613.893199167416	965.796845567669	1484.089974313066	438.493614840885	991.343249294606	934.344970392208	568.181889460300	1005.562716830665	948.727526229013	294.697511038820	1064.077738422976	753.506760111696	546.626075634122	1009.239203046331	637.602138168590	618.052940834104	1099.049101224113	588.218654824231	544.451705217885	1105.688011502123	476.885573457582	573.044625147488	1052.748457131927	736.805728298082	340.676385278852	972.581511404918	613.207534003620	285.219309145787	1052.597805376580	541.842167920651	362.954315275985	1052.784040117488	467.194787872613	375.389095986643	1007.661374961584	396.091414146485	367.023830486879	899.754837402784	299.864447756984	315.347156780594	920.774198666498	183.820395607580	390.511938540507	1025.275905060455	407.795603897125	581.810808567382	897.696216887260	377.175786361817	635.202932849138	884.634106503269	264.168344098613	594.844001037797	684.021749309585	202.082907264486	554.783342916862	847.914446620590	149.930072200981	617.837637067151	735.508168409157	150.545354579682	639.239489408361	909.416142959164	40.659656142539	660.179808178895	764.929197832249	44.332654781784	430.313427695969	838.822020913823	38.938060566590	350.459492478718	924.948918973777	96.306290331208	377.364706333390	1050.248321624064	38.558624464990	345.746510308464	1078.385480611359	1109.405460112295	116.876358798583	1279.669291732554	941.911434955904	129.511804840901	861.922273471859	1077.361211841520	697.550252261924	864.916187389123	818.243478113714	720.707544734358	
